<?xml version="1.0" standalone="no"?>
<!DOCTYPE svg PUBLIC "-//W3C//DTD SVG 20010904//EN"
 "http://www.w3.org/TR/2001/REC-SVG-20010904/DTD/svg10.dtd">
<svg version="1.0" xmlns="http://www.w3.org/2000/svg"
 width="1200.000000pt" height="1200.000000pt" viewBox="0 0 1200.000000 1200.000000"
 preserveAspectRatio="xMidYMid meet">
<metadata>
Created by potrace 1.11, written by Peter Selinger 2001-2013
</metadata>
<g transform="translate(0.000000,1200.000000) scale(0.100000,-0.100000)"
fill="#000000" stroke="none">
<path d="M2860 9102 c-16 -6 -14 -6202 3 -6203 6 0 299 -2 651 -2 534 -2 639
0 644 12 4 11 7 334 3 404 -1 16 -26 17 -389 17 l-387 0 0 2670 0 2670 387 0
c214 0 388 3 389 8 5 41 2 407 -3 415 -5 8 -195 11 -647 11 -353 1 -646 0
-651 -2z"/>
<path d="M8019 9100 c-23 -6 -23 -6 -23 -215 l0 -210 390 -5 389 -5 0 -2667 0
-2668 -387 0 c-214 0 -388 -3 -389 -7 -1 -5 -2 -100 -2 -212 -2 -183 0 -204
15 -210 13 -4 1182 -6 1271 -2 16 1 17 156 17 3104 l0 3102 -629 0 c-347 0
-640 -2 -652 -5z"/>
<path d="M6065 8719 c-64 -8 -248 -42 -336 -63 -19 -5 -98 -26 -119 -33 -8 -2
-17 -4 -20 -5 -3 0 -23 -9 -45 -21 -22 -11 -41 -19 -42 -19 -2 1 -29 -10 -60
-24 -32 -14 -73 -32 -90 -40 -18 -8 -33 -19 -33 -25 0 -5 -4 -8 -9 -4 -5 3
-12 1 -15 -4 -3 -5 -24 -18 -47 -30 -22 -12 -46 -26 -52 -31 -23 -20 -62 -52
-100 -83 -59 -48 -89 -77 -81 -77 4 0 -9 -17 -30 -37 -60 -62 -66 -69 -66 -80
0 -6 -7 -14 -16 -17 -8 -3 -12 -10 -9 -16 3 -5 1 -10 -5 -10 -6 0 -9 -4 -5 -9
3 -6 -1 -13 -9 -18 -28 -17 -135 -270 -131 -313 1 -8 -1 -19 -4 -25 -7 -12
-10 -33 -14 -95 -1 -25 -5 -49 -8 -55 -5 -9 -4 -180 1 -180 1 0 3 -20 5 -45 1
-25 6 -61 10 -80 4 -19 8 -48 11 -65 5 -40 69 -202 96 -245 12 -19 22 -38 23
-42 0 -3 11 -19 25 -35 13 -15 23 -29 21 -31 -12 -14 179 -207 302 -304 12
-10 27 -21 32 -26 28 -23 189 -125 234 -148 28 -15 51 -31 51 -36 0 -5 4 -7 8
-4 5 3 24 -5 43 -17 19 -13 52 -31 74 -42 22 -11 46 -26 53 -33 8 -7 18 -10
23 -7 5 4 9 2 9 -2 0 -5 16 -15 35 -22 19 -7 35 -17 35 -22 0 -5 3 -8 8 -7 9
4 143 -63 160 -79 12 -12 18 -14 37 -13 3 0 11 -4 18 -10 6 -5 59 -34 117 -63
58 -30 122 -64 143 -75 20 -12 40 -22 45 -23 4 -1 25 -13 47 -27 22 -13 59
-36 82 -51 24 -14 43 -30 43 -34 0 -5 5 -5 10 -2 6 3 13 -1 16 -9 3 -9 12 -16
20 -16 8 0 14 -4 14 -10 0 -5 6 -10 13 -10 17 0 134 -106 190 -172 48 -57 52
-62 50 -69 -1 -4 7 -15 17 -24 11 -10 20 -23 20 -28 0 -6 9 -29 20 -51 40 -84
53 -163 47 -291 -5 -117 -38 -265 -59 -265 -4 0 -8 -6 -8 -14 0 -7 -9 -25 -21
-40 -11 -14 -18 -26 -15 -26 15 0 -82 -100 -134 -139 -19 -14 -41 -32 -48 -39
-8 -7 -18 -10 -23 -7 -5 4 -9 2 -9 -2 0 -7 -69 -43 -90 -48 -3 0 -34 -11 -70
-22 -144 -48 -299 -68 -517 -66 -131 1 -245 15 -398 50 -60 14 -118 26 -127
26 -10 1 -18 5 -18 10 0 5 -7 7 -15 4 -8 -4 -17 -2 -20 3 -3 4 -23 11 -45 15
-22 4 -40 10 -40 14 0 4 -8 7 -18 8 -23 2 -160 57 -225 90 -29 15 -55 26 -59
25 -5 -1 -8 3 -8 9 0 5 -4 7 -10 4 -5 -3 -10 -1 -10 5 0 6 -4 9 -9 6 -5 -3
-14 1 -21 9 -7 8 -18 15 -25 15 -8 0 -15 3 -17 8 -3 6 -114 87 -143 104 -7 4
-10 -105 -10 -319 l0 -326 35 -23 c19 -12 62 -33 95 -45 33 -13 63 -27 66 -32
3 -5 10 -9 15 -8 13 0 57 -11 69 -17 5 -4 16 -7 25 -7 8 -1 58 -13 110 -28
103 -28 238 -56 304 -64 23 -2 55 -6 71 -9 32 -5 84 -11 180 -20 98 -9 490 -4
490 6 0 2 62 8 128 12 15 1 27 4 27 7 0 3 15 6 33 7 43 2 200 39 301 72 45 14
84 25 89 24 4 -1 7 3 7 10 0 6 3 9 6 5 7 -7 207 91 212 104 2 5 9 9 16 9 7 0
21 9 31 20 10 11 20 18 23 15 3 -2 11 3 18 13 7 9 16 17 21 17 12 0 46 31 116
104 92 94 96 99 90 105 -3 3 2 8 11 12 9 3 16 12 16 20 0 8 4 14 8 14 5 0 17
17 28 37 10 21 25 44 32 51 7 8 10 17 7 22 -3 5 0 10 5 12 6 2 12 10 14 18 1
8 10 32 19 54 9 21 17 45 17 52 0 8 4 14 8 14 4 0 8 8 8 18 1 9 10 55 20 102
15 67 19 125 19 270 0 199 -14 288 -61 396 -13 29 -20 55 -17 58 4 3 1 6 -6 6
-7 0 -10 4 -6 9 3 5 0 16 -7 23 -14 14 -31 43 -57 93 -9 16 -18 32 -21 35 -3
3 -25 32 -49 64 -54 73 -174 194 -261 265 -36 29 -73 59 -83 67 -9 8 -22 14
-27 14 -6 0 -10 5 -10 10 0 6 -6 10 -14 10 -8 0 -16 4 -18 8 -4 12 -95 72
-107 72 -6 0 -11 4 -11 9 0 5 -10 13 -22 16 -11 4 -61 32 -111 61 -49 30 -93
54 -97 54 -4 0 -23 11 -43 24 -19 13 -38 22 -41 18 -3 -3 -6 0 -6 7 0 7 -4 10
-9 7 -5 -4 -11 -3 -13 1 -4 10 -261 138 -270 135 -5 -1 -8 3 -8 10 0 6 -3 8
-7 5 -3 -4 -11 -3 -17 2 -6 5 -54 31 -106 59 -187 98 -216 114 -315 180 -118
78 -162 116 -254 222 -33 37 -97 150 -85 150 3 0 2 6 -3 13 -14 17 -28 71 -38
142 -11 79 -8 166 10 243 3 12 7 31 10 43 7 33 29 79 38 79 5 0 6 4 3 9 -3 4
3 19 14 31 11 13 20 26 20 30 0 11 140 150 150 150 5 0 13 8 19 18 5 9 13 16
18 16 4 -1 26 9 48 22 54 31 124 62 157 68 14 2 36 9 47 16 12 6 26 8 31 5 6
-3 10 -3 10 2 0 4 10 9 23 10 21 2 56 9 67 13 3 1 8 2 11 2 3 -1 37 4 75 9
104 16 423 12 544 -6 14 -2 41 -6 60 -10 19 -4 44 -8 55 -10 11 -1 20 -3 20
-5 0 -1 9 -3 20 -5 11 -1 32 -5 48 -9 15 -3 39 -8 54 -12 15 -3 31 -8 37 -12
6 -3 19 -8 28 -9 19 -3 205 -80 228 -94 8 -5 26 -15 40 -21 14 -7 31 -18 38
-25 7 -7 18 -13 23 -13 5 0 20 -9 31 -20 12 -11 26 -19 31 -17 5 1 10 140 11
312 l1 310 -60 27 c-33 14 -63 24 -67 22 -4 -3 -8 0 -8 6 0 7 -7 10 -15 6 -8
-3 -15 -2 -15 3 0 4 -6 8 -12 8 -7 1 -40 9 -73 18 -83 22 -274 54 -381 62
-139 11 -540 12 -629 2z"/>
</g>
</svg>
